<svg width="32" height="32" viewBox="0 0 32 32" fill="none" xmlns="http://www.w3.org/2000/svg">
  <path d="M32 0H0V32H32V0Z" fill="#E8541F" />
  <path
    d="M10.5859 15.5195C10.5859 17.3359 9.11328 18.8125 7.29297 18.8125C5.47266 18.8125 4 17.3359 4 15.5195C4 13.6992 5.47266 12.2266 7.29297 12.2266C9.11328 12.2266 10.5859 13.6992 10.5859 15.5195Z"
    fill="white" />
  <path
    d="M24.3125 8.29297C24.3125 10.1133 22.8359 11.5859 21.0195 11.5859C19.1992 11.5859 17.7227 10.1133 17.7227 8.29297C17.7227 6.47656 19.1992 5 21.0195 5C22.8359 5 24.3125 6.47656 24.3125 8.29297Z"
    fill="white" />
  <path
    d="M14.7227 24C12.3477 23.4922 10.3672 21.9766 9.25 19.8242C8.36719 20.2266 7.37891 20.3437 6.42969 20.168C7.78125 23.4805 10.6445 25.8867 14.1562 26.6445C14.9258 26.8047 15.7109 26.8867 16.4922 26.8867C15.8867 26.0938 15.5508 25.1328 15.5312 24.1328C15.2617 24.1016 14.9883 24.0547 14.7227 24Z"
    fill="white" />
  <path
    d="M23.5664 24.0195C23.5664 25.8359 22.0937 27.3125 20.2734 27.3125C18.457 27.3125 16.9805 25.8359 16.9805 24.0195C16.9805 22.1992 18.457 20.7266 20.2734 20.7266C22.0937 20.7266 23.5664 22.1992 23.5664 24.0195Z"
    fill="white" />
  <path
    d="M24.8633 22.8047C25.8867 21.5117 26.6055 19.9883 26.957 18.3633C27.5625 15.5312 26.9922 12.5625 25.3984 10.1562C25.0195 11.0508 24.375 11.8047 23.543 12.3242C24.4297 14 24.707 15.9375 24.3047 17.793C24.1133 18.707 23.7695 19.5625 23.2812 20.3516C24.0547 20.9883 24.6055 21.8438 24.8555 22.8047H24.8633Z"
    fill="white" />
  <path
    d="M7.03516 10.793C7.11719 10.793 7.20703 10.7891 7.28516 10.7891C7.61719 10.7891 7.94922 10.8242 8.28125 10.8945C8.81641 11.0078 9.32422 11.2109 9.78516 11.5C11.2695 9.36719 13.6602 8.08594 16.2617 8.03907C16.2734 7.78907 16.3125 7.53907 16.3633 7.29297C16.5117 6.58594 16.8242 5.92578 17.2617 5.36328C13.1172 5.03125 9.09375 7.17579 7.03516 10.793Z"
    fill="white" />
</svg>
  