<svg width="144" height="54" viewBox="0 0 144 54" fill="none" xmlns="http://www.w3.org/2000/svg">
  <path d="M32 0H0V54H32V0Z" fill="#E95420" />
  <path
    d="M10.5742 37.3633C10.5742 39.1797 9.10156 40.6563 7.28125 40.6563C5.46094 40.6563 3.98828 39.1797 3.98828 37.3633C3.98828 35.543 5.46094 34.0703 7.28125 34.0703C9.10156 34.0703 10.5742 35.543 10.5742 37.3633Z"
    fill="white" />
  <path
    d="M24.3008 30.1367C24.3008 31.957 22.8242 33.4297 21.0078 33.4297C19.1875 33.4297 17.7109 31.957 17.7109 30.1367C17.7109 28.3203 19.1875 26.8438 21.0078 26.8438C22.8242 26.8438 24.3008 28.3203 24.3008 30.1367Z"
    fill="white" />
  <path
    d="M14.7109 45.8438C12.3359 45.3359 10.3555 43.8203 9.23828 41.668C8.35547 42.0703 7.36719 42.1875 6.41797 42.0117C7.76953 45.3242 10.6328 47.7305 14.1445 48.4883C14.9141 48.6484 15.6992 48.7305 16.4805 48.7305C15.875 47.9375 15.5391 46.9766 15.5195 45.9766C15.25 45.9453 14.9766 45.8984 14.7109 45.8438Z"
    fill="white" />
  <path
    d="M23.5547 45.8633C23.5547 47.6797 22.082 49.1562 20.2617 49.1562C18.4453 49.1562 16.9688 47.6797 16.9688 45.8633C16.9688 44.043 18.4453 42.5703 20.2617 42.5703C22.082 42.5703 23.5547 44.043 23.5547 45.8633Z"
    fill="white" />
  <path
    d="M24.8516 44.6484C25.875 43.3555 26.5938 41.832 26.9453 40.207C27.5508 37.375 26.9805 34.4062 25.3867 32C25.0078 32.8945 24.3633 33.6484 23.5312 34.168C24.418 35.8437 24.6953 37.7812 24.293 39.6367C24.1016 40.5508 23.7578 41.4063 23.2695 42.1953C24.043 42.832 24.5938 43.6875 24.8438 44.6484H24.8516Z"
    fill="white" />
  <path
    d="M7.02344 32.6367C7.10547 32.6367 7.19531 32.6328 7.27344 32.6328C7.60547 32.6328 7.9375 32.668 8.26953 32.7383C8.80469 32.8516 9.3125 33.0547 9.77344 33.3438C11.2578 31.2109 13.6484 29.9297 16.25 29.8828C16.2617 29.6328 16.3008 29.3828 16.3516 29.1367C16.5 28.4297 16.8125 27.7695 17.25 27.207C13.1055 26.875 9.08203 29.0195 7.02344 32.6367Z"
    fill="white" />
  <path
    d="M42.84 49.3C41.76 49.3 40.86 49.18 40.14 48.94C39.4333 48.7 38.9467 48.5 38.68 48.34L39.18 47.02C39.46 47.18 39.9067 47.3733 40.52 47.6C41.1467 47.8267 41.92 47.94 42.84 47.94C43.8933 47.94 44.7067 47.7533 45.28 47.38C45.8533 46.9933 46.14 46.3867 46.14 45.56C46.14 44.92 45.98 44.42 45.66 44.06C45.3533 43.6867 44.94 43.3867 44.42 43.16C43.9133 42.92 43.3533 42.68 42.74 42.44C41.9933 42.1467 41.34 41.84 40.78 41.52C40.2333 41.1867 39.8067 40.7867 39.5 40.32C39.2067 39.84 39.06 39.24 39.06 38.52C39.06 37.72 39.24 37.0467 39.6 36.5C39.96 35.9533 40.48 35.54 41.16 35.26C41.84 34.98 42.6467 34.84 43.58 34.84C44.3533 34.84 45.0667 34.94 45.72 35.14C46.3867 35.3267 46.9 35.5333 47.26 35.76L46.74 37.06C46.3533 36.7933 45.88 36.58 45.32 36.42C44.7733 36.26 44.1867 36.18 43.56 36.18C42.7067 36.18 42.0067 36.3533 41.46 36.7C40.9133 37.0467 40.64 37.6133 40.64 38.4C40.64 38.9333 40.7733 39.3667 41.04 39.7C41.3067 40.0333 41.6733 40.3133 42.14 40.54C42.6067 40.7667 43.1333 41 43.72 41.24C44.48 41.5333 45.16 41.8467 45.76 42.18C46.3733 42.5 46.86 42.92 47.22 43.44C47.58 43.9467 47.76 44.6333 47.76 45.5C47.76 46.34 47.56 47.04 47.16 47.6C46.76 48.16 46.1933 48.5867 45.46 48.88C44.7267 49.16 43.8533 49.3 42.84 49.3ZM52.4339 49C52.1006 48.2933 51.7606 47.5333 51.4139 46.72C51.0672 45.9067 50.7272 45.06 50.3939 44.18C50.0606 43.3 49.7406 42.4 49.4339 41.48C49.1406 40.5467 48.8739 39.6 48.6339 38.64H50.2139C50.4272 39.56 50.6939 40.5533 51.0139 41.62C51.3472 42.6733 51.7006 43.7067 52.0739 44.72C52.4606 45.72 52.8272 46.6 53.1739 47.36C53.4406 46.8 53.7139 46.16 53.9939 45.44C54.2739 44.72 54.5472 43.9733 54.8139 43.2C55.0806 42.4133 55.3272 41.6333 55.5539 40.86C55.7806 40.0733 55.9739 39.3333 56.1339 38.64H57.6339C57.3939 39.6 57.1206 40.5467 56.8139 41.48C56.5206 42.4 56.2072 43.3 55.8739 44.18C55.5406 45.06 55.2006 45.9067 54.8539 46.72C54.5206 47.5333 54.1806 48.2933 53.8339 49H52.4339ZM64.2005 49.22C62.9871 49.22 62.0005 48.9867 61.2405 48.52C60.4938 48.0533 59.9405 47.4133 59.5805 46.6C59.2338 45.7867 59.0605 44.86 59.0605 43.82C59.0605 42.6067 59.2805 41.6 59.7205 40.8C60.1605 40 60.7271 39.4 61.4205 39C62.1271 38.6 62.8671 38.4 63.6405 38.4C64.5071 38.4 65.2538 38.5867 65.8805 38.96C66.5205 39.32 67.0138 39.88 67.3605 40.64C67.7071 41.3867 67.8805 42.34 67.8805 43.5C67.8805 43.5933 67.8738 43.7067 67.8605 43.84C67.8605 43.96 67.8538 44.0733 67.8405 44.18H60.6205C60.6738 45.3533 60.9871 46.2667 61.5605 46.92C62.1471 47.56 63.0538 47.88 64.2805 47.88C64.9605 47.88 65.5138 47.82 65.9405 47.7C66.3805 47.5667 66.6938 47.4533 66.8805 47.36L67.1405 48.62C66.9538 48.7267 66.5871 48.8533 66.0405 49C65.5071 49.1467 64.8938 49.22 64.2005 49.22ZM60.6605 42.96H66.3605C66.3471 42.28 66.2338 41.7 66.0205 41.22C65.8071 40.7267 65.5005 40.3533 65.1005 40.1C64.7138 39.8333 64.2338 39.7 63.6605 39.7C63.0738 39.7 62.5605 39.8533 62.1205 40.16C61.6805 40.4667 61.3338 40.8667 61.0805 41.36C60.8405 41.8533 60.7005 42.3867 60.6605 42.96ZM73.4956 49.18C72.8556 49.1533 72.3223 49.0467 71.8956 48.86C71.4823 48.6733 71.1756 48.3867 70.9756 48C70.7756 47.6 70.6756 47.0667 70.6756 46.4V33.74L72.1756 33.48V46.3C72.1756 46.94 72.289 47.3533 72.5156 47.54C72.7556 47.7267 73.1556 47.86 73.7156 47.94L73.4956 49.18ZM79.31 49.22C78.43 49.22 77.7367 49.0667 77.23 48.76C76.7233 48.4533 76.3633 47.9933 76.15 47.38C75.95 46.7667 75.85 46 75.85 45.08V35.64L77.35 35.38V38.64H81.41V39.9H77.35V45.2C77.35 45.9333 77.43 46.4933 77.59 46.88C77.7633 47.2667 78.0033 47.5333 78.31 47.68C78.63 47.8133 79.0033 47.88 79.43 47.88C79.9367 47.88 80.3567 47.82 80.69 47.7C81.0367 47.58 81.31 47.4733 81.51 47.38L81.83 48.6C81.63 48.72 81.2967 48.8533 80.83 49C80.3767 49.1467 79.87 49.22 79.31 49.22ZM88.2825 49.22C87.0692 49.22 86.0825 48.9867 85.3225 48.52C84.5758 48.0533 84.0225 47.4133 83.6625 46.6C83.3158 45.7867 83.1425 44.86 83.1425 43.82C83.1425 42.6067 83.3625 41.6 83.8025 40.8C84.2425 40 84.8092 39.4 85.5025 39C86.2092 38.6 86.9492 38.4 87.7225 38.4C88.5892 38.4 89.3358 38.5867 89.9625 38.96C90.6025 39.32 91.0958 39.88 91.4425 40.64C91.7892 41.3867 91.9625 42.34 91.9625 43.5C91.9625 43.5933 91.9558 43.7067 91.9425 43.84C91.9425 43.96 91.9358 44.0733 91.9225 44.18H84.7025C84.7558 45.3533 85.0692 46.2667 85.6425 46.92C86.2292 47.56 87.1358 47.88 88.3625 47.88C89.0425 47.88 89.5958 47.82 90.0225 47.7C90.4625 47.5667 90.7758 47.4533 90.9625 47.36L91.2225 48.62C91.0358 48.7267 90.6692 48.8533 90.1225 49C89.5892 49.1467 88.9758 49.22 88.2825 49.22ZM84.7425 42.96H90.4425C90.4292 42.28 90.3158 41.7 90.1025 41.22C89.8892 40.7267 89.5825 40.3533 89.1825 40.1C88.7958 39.8333 88.3158 39.7 87.7425 39.7C87.1558 39.7 86.6425 39.8533 86.2025 40.16C85.7625 40.4667 85.4158 40.8667 85.1625 41.36C84.9225 41.8533 84.7825 42.3867 84.7425 42.96ZM99.448 49V35.14H101.008V49H99.448ZM108.825 49.22C107.732 49.22 106.818 49 106.085 48.56C105.352 48.1067 104.798 47.4733 104.425 46.66C104.052 45.8467 103.865 44.9067 103.865 43.84C103.865 42.76 104.058 41.8133 104.445 41C104.832 40.1867 105.385 39.5533 106.105 39.1C106.838 38.6333 107.705 38.4 108.705 38.4C109.252 38.4 109.772 38.4467 110.265 38.54C110.758 38.6333 111.145 38.7533 111.425 38.9L111.045 40.16C110.778 40.04 110.478 39.94 110.145 39.86C109.812 39.78 109.372 39.74 108.825 39.74C107.718 39.74 106.872 40.1 106.285 40.82C105.712 41.54 105.425 42.5467 105.425 43.84C105.425 44.64 105.545 45.3467 105.785 45.96C106.025 46.56 106.412 47.0333 106.945 47.38C107.478 47.7133 108.185 47.88 109.065 47.88C109.585 47.88 110.038 47.82 110.425 47.7C110.825 47.58 111.118 47.4733 111.305 47.38L111.605 48.66C111.352 48.7933 110.965 48.92 110.445 49.04C109.925 49.16 109.385 49.22 108.825 49.22ZM117.863 49.24C116.943 49.24 116.123 49.02 115.403 48.58C114.683 48.1267 114.117 47.4933 113.703 46.68C113.303 45.8667 113.103 44.9133 113.103 43.82C113.103 42.7267 113.303 41.78 113.703 40.98C114.117 40.1667 114.683 39.5333 115.403 39.08C116.123 38.6267 116.943 38.4 117.863 38.4C118.797 38.4 119.623 38.6267 120.343 39.08C121.063 39.5333 121.623 40.1667 122.023 40.98C122.437 41.78 122.643 42.7267 122.643 43.82C122.643 44.9133 122.437 45.8667 122.023 46.68C121.623 47.4933 121.063 48.1267 120.343 48.58C119.637 49.02 118.81 49.24 117.863 49.24ZM117.863 47.9C118.53 47.9 119.103 47.7333 119.583 47.4C120.063 47.0667 120.43 46.5933 120.683 45.98C120.95 45.3667 121.083 44.6467 121.083 43.82C121.083 42.9933 120.95 42.2733 120.683 41.66C120.43 41.0467 120.063 40.5733 119.583 40.24C119.103 39.9067 118.53 39.74 117.863 39.74C117.21 39.74 116.643 39.9067 116.163 40.24C115.683 40.5733 115.31 41.0467 115.043 41.66C114.79 42.2733 114.663 42.9933 114.663 43.82C114.663 44.6467 114.79 45.3667 115.043 45.98C115.31 46.5933 115.683 47.0667 116.163 47.4C116.643 47.7333 117.21 47.9 117.863 47.9ZM125.403 49V39C125.816 38.8933 126.356 38.7733 127.023 38.64C127.689 38.5067 128.489 38.44 129.423 38.44C130.503 38.44 131.343 38.64 131.943 39.04C132.543 39.44 132.963 40 133.203 40.72C133.456 41.4267 133.583 42.2533 133.583 43.2V49H132.083V43.62C132.083 42.6733 131.996 41.92 131.823 41.36C131.649 40.8 131.356 40.3933 130.943 40.14C130.529 39.8867 129.956 39.76 129.223 39.76C128.663 39.76 128.169 39.7933 127.743 39.86C127.316 39.9267 127.036 39.98 126.903 40.02V49H125.403ZM139.048 49.24C138.155 49.24 137.455 49.16 136.948 49C136.455 48.8533 136.122 48.74 135.948 48.66L136.308 47.34C136.455 47.3933 136.755 47.5067 137.208 47.68C137.662 47.8533 138.275 47.94 139.048 47.94C139.782 47.94 140.375 47.8267 140.828 47.6C141.282 47.3733 141.508 46.98 141.508 46.42C141.508 46.06 141.428 45.7733 141.268 45.56C141.108 45.3333 140.848 45.1267 140.488 44.94C140.142 44.7533 139.662 44.54 139.048 44.3C138.528 44.0867 138.048 43.86 137.608 43.62C137.168 43.38 136.808 43.0733 136.528 42.7C136.262 42.3267 136.128 41.8467 136.128 41.26C136.128 40.6867 136.275 40.1867 136.568 39.76C136.862 39.3333 137.275 39 137.808 38.76C138.355 38.52 139.002 38.4 139.748 38.4C140.442 38.4 141.028 38.46 141.508 38.58C141.988 38.7 142.328 38.8067 142.528 38.9L142.188 40.2C142.015 40.1067 141.735 40 141.348 39.88C140.962 39.7467 140.415 39.68 139.708 39.68C139.148 39.68 138.662 39.8 138.248 40.04C137.835 40.2667 137.628 40.6333 137.628 41.14C137.628 41.5 137.715 41.7933 137.888 42.02C138.062 42.2333 138.322 42.4267 138.668 42.6C139.015 42.7733 139.442 42.96 139.948 43.16C140.522 43.3867 141.035 43.6267 141.488 43.88C141.955 44.12 142.328 44.4333 142.608 44.82C142.888 45.2067 143.028 45.72 143.028 46.36C143.028 46.9867 142.868 47.52 142.548 47.96C142.228 48.3867 141.768 48.7067 141.168 48.92C140.582 49.1333 139.875 49.24 139.048 49.24Z"
    fill="#fff" />
</svg>
  